# Blender 3.1.0
# www.blender.org
mtllib roadPlace.mtl
o ĞšÑƒĞ±
v -0.300000 -0.131447 2.100000
v -0.300000 0.468553 2.100000
v -0.300000 -0.131447 -2.100000
v -0.300000 0.468553 -2.100000
v 0.300000 -0.131447 2.100000
v 0.300000 0.468553 2.100000
v 0.300000 -0.131447 -2.100000
v 0.300000 0.468553 -2.100000
v -0.300000 -0.131447 -1.820000
v -0.300000 -0.131447 -1.540000
v -0.300000 -0.131447 -1.260000
v -0.300000 -0.083616 -0.980000
v -0.300000 0.018060 -0.700000
v -0.300000 0.066885 -0.420000
v -0.300000 0.066885 -0.140000
v -0.300000 0.066885 0.140000
v -0.300000 0.066885 0.420000
v -0.300000 0.066885 0.700000
v -0.300000 0.018060 0.980000
v -0.300000 -0.083616 1.260000
v -0.300000 -0.131447 1.540000
v -0.300000 -0.131447 1.820000
v -0.300000 0.468553 1.820000
v -0.300000 0.507210 1.540000
v -0.300000 0.699809 1.260000
v -0.300000 0.924213 0.980000
v -0.300000 1.031997 0.700000
v -0.300000 1.031997 0.420000
v -0.300000 1.031997 0.140000
v -0.300000 1.031997 -0.140000
v -0.300000 1.031997 -0.420000
v -0.300000 0.924213 -0.700000
v -0.300000 0.699809 -0.980000
v -0.300000 0.507210 -1.260000
v -0.300000 0.468553 -1.540000
v -0.300000 0.468553 -1.820000
v 0.300000 -0.131447 1.820000
v 0.300000 -0.131447 1.540000
v 0.300000 -0.083616 1.260000
v 0.300000 0.018060 0.980000
v 0.300000 0.066885 0.700000
v 0.300000 0.066885 0.420000
v 0.300000 0.066885 0.140000
v 0.300000 0.066885 -0.140000
v 0.300000 0.066885 -0.420000
v 0.300000 0.018060 -0.700000
v 0.300000 -0.083616 -0.980000
v 0.300000 -0.131447 -1.260000
v 0.300000 -0.131447 -1.540000
v 0.300000 -0.131447 -1.820000
v 0.300000 0.468553 -1.820000
v 0.300000 0.468553 -1.540000
v 0.300000 0.507210 -1.260000
v 0.300000 0.699809 -0.980000
v 0.300000 0.924213 -0.700000
v 0.300000 1.031997 -0.420000
v 0.300000 1.031997 -0.140000
v 0.300000 1.031997 0.140000
v 0.300000 1.031997 0.420000
v 0.300000 1.031997 0.700000
v 0.300000 0.924213 0.980000
v 0.300000 0.699809 1.260000
v 0.300000 0.507210 1.540000
v 0.300000 0.468553 1.820000
v -0.300000 1.031997 0.420000
v -0.300000 1.031997 -0.140000
v 0.300000 1.031997 -0.140000
v 0.300000 1.031997 0.420000
vn -1.0000 -0.0000 -0.0000
vn -0.0000 -0.0000 -1.0000
vn 1.0000 -0.0000 -0.0000
vn -0.0000 -0.0000 1.0000
vn -0.0000 -1.0000 -0.0000
vn -0.0000 1.0000 -0.0000
vn -0.0000 0.9906 -0.1368
vn -0.0000 0.8239 -0.5667
vn -0.0000 0.7803 -0.6254
vn -0.0000 0.9332 -0.3592
vn -0.0000 0.9332 0.3592
vn -0.0000 0.7803 0.6254
vn -0.0000 0.8239 0.5667
vn -0.0000 0.9906 0.1368
vn -0.0000 -0.9857 0.1684
vn -0.0000 -0.9399 0.3413
vn -0.0000 -0.9851 0.1718
vn -0.0000 -0.9851 -0.1718
vn -0.0000 -0.9399 -0.3413
vn -0.0000 -0.9857 -0.1684
vt 0.375000 1.000000
vt 0.125000 0.750000
vt 0.375000 0.000000
vt 0.625000 1.000000
vt 0.875000 0.750000
vt 0.625000 0.000000
vt 0.375000 0.250000
vt 0.125000 0.500000
vt 0.625000 0.250000
vt 0.875000 0.500000
vt 0.375000 0.750000
vt 0.625000 0.750000
vt 0.375000 0.500000
vt 0.625000 0.500000
vt 0.125000 0.516667
vt 0.375000 0.233333
vt 0.125000 0.533333
vt 0.375000 0.216667
vt 0.125000 0.550000
vt 0.375000 0.200000
vt 0.125000 0.566667
vt 0.375000 0.183333
vt 0.125000 0.583333
vt 0.375000 0.166667
vt 0.125000 0.600000
vt 0.375000 0.150000
vt 0.125000 0.616667
vt 0.375000 0.133333
vt 0.125000 0.633333
vt 0.375000 0.116667
vt 0.125000 0.650000
vt 0.375000 0.100000
vt 0.125000 0.666667
vt 0.375000 0.083333
vt 0.125000 0.683333
vt 0.375000 0.066667
vt 0.125000 0.700000
vt 0.375000 0.050000
vt 0.125000 0.716667
vt 0.375000 0.033333
vt 0.125000 0.733333
vt 0.375000 0.016667
vt 0.875000 0.733333
vt 0.625000 0.016667
vt 0.875000 0.716667
vt 0.625000 0.033333
vt 0.875000 0.700000
vt 0.625000 0.050000
vt 0.875000 0.683333
vt 0.625000 0.066667
vt 0.875000 0.666667
vt 0.625000 0.083333
vt 0.625000 0.100000
vt 0.875000 0.650000
vt 0.875000 0.633333
vt 0.625000 0.116667
vt 0.625000 0.133333
vt 0.875000 0.616667
vt 0.875000 0.600000
vt 0.625000 0.150000
vt 0.875000 0.583333
vt 0.625000 0.166667
vt 0.875000 0.566667
vt 0.625000 0.183333
vt 0.875000 0.550000
vt 0.625000 0.200000
vt 0.875000 0.533333
vt 0.625000 0.216667
vt 0.875000 0.516667
vt 0.625000 0.233333
vt 0.375000 0.733333
vt 0.375000 0.716667
vt 0.375000 0.700000
vt 0.375000 0.683333
vt 0.375000 0.666667
vt 0.375000 0.650000
vt 0.375000 0.633333
vt 0.375000 0.616667
vt 0.375000 0.600000
vt 0.375000 0.583333
vt 0.375000 0.566667
vt 0.375000 0.550000
vt 0.375000 0.533333
vt 0.375000 0.516667
vt 0.625000 0.516667
vt 0.625000 0.533333
vt 0.625000 0.550000
vt 0.625000 0.566667
vt 0.625000 0.583333
vt 0.625000 0.600000
vt 0.625000 0.616667
vt 0.625000 0.633333
vt 0.625000 0.650000
vt 0.625000 0.666667
vt 0.625000 0.683333
vt 0.625000 0.700000
vt 0.625000 0.716667
vt 0.625000 0.733333
vt 0.875000 0.650000
vt 0.875000 0.616667
vt 0.625000 0.616667
vt 0.625000 0.650000
s 0
f 9/16/1 36/70/1 4/9/1 3/7/1
f 3/7/2 4/9/2 8/14/2 7/13/2
f 37/71/3 64/98/3 6/12/3 5/11/3
f 5/11/4 6/12/4 2/4/4 1/1/4
f 22/41/5 37/71/5 5/11/5 1/2/5
f 64/98/6 23/43/6 2/5/6 6/12/6
f 8/14/6 4/10/6 36/69/6 51/85/6
f 51/85/6 36/69/6 35/67/6 52/86/6
f 52/86/7 35/67/7 34/65/7 53/87/7
f 53/87/8 34/65/8 33/63/8 54/88/8
f 54/88/9 33/63/9 32/61/9 55/89/9
f 55/89/10 32/61/10 31/59/10 56/90/10
f 56/90/6 31/59/6 30/58/6 57/91/6
f 57/91/6 30/58/6 29/55/6 58/92/6
f 58/92/6 29/55/6 28/54/6 59/93/6
f 59/93/6 28/54/6 27/51/6 60/94/6
f 60/94/11 27/51/11 26/49/11 61/95/11
f 61/95/12 26/49/12 25/47/12 62/96/12
f 62/96/13 25/47/13 24/45/13 63/97/13
f 63/97/14 24/45/14 23/43/14 64/98/14
f 3/8/5 7/13/5 50/84/5 9/15/5
f 9/15/5 50/84/5 49/83/5 10/17/5
f 10/17/5 49/83/5 48/82/5 11/19/5
f 11/19/15 48/82/15 47/81/15 12/21/15
f 12/21/16 47/81/16 46/80/16 13/23/16
f 13/23/17 46/80/17 45/79/17 14/25/17
f 14/25/5 45/79/5 44/78/5 15/27/5
f 15/27/5 44/78/5 43/77/5 16/29/5
f 16/29/5 43/77/5 42/76/5 17/31/5
f 17/31/5 42/76/5 41/75/5 18/33/5
f 18/33/18 41/75/18 40/74/18 19/35/18
f 19/35/19 40/74/19 39/73/19 20/37/19
f 20/37/20 39/73/20 38/72/20 21/39/20
f 21/39/5 38/72/5 37/71/5 22/41/5
f 7/13/3 8/14/3 51/85/3 50/84/3
f 50/84/3 51/85/3 52/86/3 49/83/3
f 49/83/3 52/86/3 53/87/3 48/82/3
f 48/82/3 53/87/3 54/88/3 47/81/3
f 47/81/3 54/88/3 55/89/3 46/80/3
f 46/80/3 55/89/3 56/90/3 45/79/3
f 45/79/3 56/90/3 57/91/3 44/78/3
f 44/78/3 57/91/3 58/92/3 43/77/3
f 43/77/3 58/92/3 59/93/3 42/76/3
f 42/76/3 59/93/3 60/94/3 41/75/3
f 41/75/3 60/94/3 61/95/3 40/74/3
f 40/74/3 61/95/3 62/96/3 39/73/3
f 39/73/3 62/96/3 63/97/3 38/72/3
f 38/72/3 63/97/3 64/98/3 37/71/3
f 1/3/1 2/6/1 23/44/1 22/42/1
f 22/42/1 23/44/1 24/46/1 21/40/1
f 21/40/1 24/46/1 25/48/1 20/38/1
f 20/38/1 25/48/1 26/50/1 19/36/1
f 19/36/1 26/50/1 27/52/1 18/34/1
f 18/34/1 27/52/1 28/53/1 17/32/1
f 17/32/1 28/53/1 29/56/1 16/30/1
f 16/30/1 29/56/1 30/57/1 15/28/1
f 15/28/1 30/57/1 31/60/1 14/26/1
f 14/26/1 31/60/1 32/62/1 13/24/1
f 13/24/1 32/62/1 33/64/1 12/22/1
f 12/22/1 33/64/1 34/66/1 11/20/1
f 11/20/1 34/66/1 35/68/1 10/18/1
f 10/18/1 35/68/1 36/70/1 9/16/1
f 30/58/6 28/54/6 59/93/6 57/91/6
f 59/93/6 28/54/6 65/99/6 68/102/6
f 30/58/6 57/91/6 67/101/6 66/100/6
